inDegrees=no
num_controls=7
num_derivatives=13
num_iterations=157
num_multipliers=7
num_parameters=0
num_slacks=7
num_states=26
objective=5.487975
objective_accelerations=0.525536
objective_balance=0.013469
objective_effort=0.421552
objective_height=4.434551
objective_ligament=0.092868
solver_duration=1309.856717
status=Solve_Succeeded
success=true
DataType=double
version=3
OpenSimVersion=4.4-2022-07-23-0e9fedc
endheader
time	/jointset/ground_pelvis/pelvis_tilt/value	/jointset/ground_pelvis/pelvis_tx/value	/jointset/ground_pelvis/pelvis_ty/value	/jointset/hip_r/hip_flexion_r/value	/jointset/hip_r/hip_adduction_r/value	/jointset/hip_r/hip_rotation_r/value	/jointset/back/lumbar_extension/value	/jointset/patellofemoral_r/patellar_flexion_r/value	/jointset/knee_r/knee_flexion_r/value	/jointset/knee_r/knee_adduction_r/value	/jointset/knee_r/knee_rotation_r/value	/jointset/ankle_r/ankle_angle_r/value	/jointset/subtalar_r/subtalar_angle_r/value	/jointset/ground_pelvis/pelvis_tilt/speed	/jointset/ground_pelvis/pelvis_tx/speed	/jointset/ground_pelvis/pelvis_ty/speed	/jointset/hip_r/hip_flexion_r/speed	/jointset/hip_r/hip_adduction_r/speed	/jointset/hip_r/hip_rotation_r/speed	/jointset/back/lumbar_extension/speed	/jointset/patellofemoral_r/patellar_flexion_r/speed	/jointset/knee_r/knee_flexion_r/speed	/jointset/knee_r/knee_adduction_r/speed	/jointset/knee_r/knee_rotation_r/speed	/jointset/ankle_r/ankle_angle_r/speed	/jointset/subtalar_r/subtalar_angle_r/speed	/forceset/tau_hip_flexion_r	/forceset/tau_hip_adduction_r	/forceset/tau_hip_rotation_r	/forceset/tau_knee_flexion_r	/forceset/tau_ankle_angle_r	/forceset/tau_subtalar_angle_r	/forceset/tau_lumbar_extension	lambda_cid13_p0	lambda_cid14_p0	lambda_cid14_p1	lambda_cid14_p2	lambda_cid14_p3	lambda_cid14_p4	lambda_cid14_p5	/jointset/ground_pelvis/pelvis_tilt/accel	/jointset/ground_pelvis/pelvis_tx/accel	/jointset/ground_pelvis/pelvis_ty/accel	/jointset/hip_r/hip_flexion_r/accel	/jointset/hip_r/hip_adduction_r/accel	/jointset/hip_r/hip_rotation_r/accel	/jointset/back/lumbar_extension/accel	/jointset/patellofemoral_r/patellar_flexion_r/accel	/jointset/knee_r/knee_flexion_r/accel	/jointset/knee_r/knee_adduction_r/accel	/jointset/knee_r/knee_rotation_r/accel	/jointset/ankle_r/ankle_angle_r/accel	/jointset/subtalar_r/subtalar_angle_r/accel	gamma_cid13_p0	gamma_cid14_p0	gamma_cid14_p1	gamma_cid14_p2	gamma_cid14_p3	gamma_cid14_p4	gamma_cid14_p5
1.5	-0.05419359263756279	0.04217337466068491	0.8306768832953683	0.73971212465612	-0.2177051857251768	-0.1481374376203913	-0.6180989622194248	0.8938727848133836	0.8938727848133824	-0.05936173810473096	0.1745322614887957	0.3021702255505414	0.1502412027811751	0.396567342515078	0.2068499986713394	0.4532512763861541	-1.825129434476053	0.02504636474232557	-0.1644321870166887	0.8036530055402702	-1.846007989541588	-1.846007989541589	0.4398377526084932	-5.141249510702758e-05	-0.5222786415057185	-0.1769245698054561	-0.1410809697373896	-0.004379600145870276	0.01830834065980069	-0.3022528074957628	0.006533340095384864	0.003646390231842404	0.200999597456242	-11.80073649339584	-39.78203687571039	-3.788704839544722	-0.7938772836741866	-1.19579141451568	-632.7716267243987	70.31578145866601	0.06908147185502572	0.4811930574982251	-0.4623040333811246	-0.8772084311910961	-0.2050242671468976	-0.5922158774768451	1.651834772095877	-1.249326726715414	-1.249326726715402	0.4108518227310493	-0.0008342416124515596	-0.5936229775327494	-0.3786021994530157	1.314824349593541e-07	1.774783595476705e-07	-1.708575130845149e-07	1.926103690985597e-06	-7.204833362192263e-08	2.631766153246289e-07	-3.543156562841658e-07
1.51	-0.05022480577749146	0.0442656439201056	0.8351853447980645	0.7214190658563174	-0.2174657017194437	-0.1498104605208565	-0.6099812415123407	0.8753528121007793	0.8753528121007997	-0.05494119649599354	0.1745320778378546	0.2969182802658883	0.1484522497314154	0.3971348146397034	0.2115719596229791	0.4483446064614972	-1.833231231885168	0.0228381103748965	-0.1701565507939236	0.8197719564967881	-1.857720186197168	-1.857720186197166	0.4442534797845753	1.872559791267313e-06	-0.5280336602765807	-0.1808381464656971	-0.1346064186428226	-0.005559471325328359	0.01802616132759429	-0.2982043299193185	0.007868604548116796	0.002947402674352153	0.1948698540666995	-12.75864386322436	-39.11551969287341	-3.838958531329409	-0.9419115638815883	-1.14354731161601	-628.4204702974265	69.90388540030281	0.04230762398734447	0.4629125805496278	-0.5192688180546254	-0.7389880367101187	-0.2304419523694495	-0.5599893055778543	1.574048350542447	-1.092230266650139	-1.092230266649783	0.4543236138803921	0.006688400484312493	-0.5549088440320281	-0.3934907170495331	1.078955770703161e-07	1.244604164357172e-07	-3.574520406932479e-07	1.388215507229007e-06	-2.777949543074505e-08	2.290954921741575e-07	-4.329546432252611e-07
1.52	-0.04625199868792045	0.04640417578235333	0.839641855532305	0.7030525245542401	-0.2172486434435533	-0.1515402155946362	-0.6017059066770675	0.8567237045952896	0.8567237045953181	-0.05047701952573004	0.1745320827416979	0.2916110912900928	0.1466250098515052	0.397371388413148	0.2161025192367483	0.4428611226950035	-1.839825934931826	0.02056121877432182	-0.1757786216803982	0.8351758311778074	-1.86783494811958	-1.867834948119575	0.4485648249139986	-1.370152757670499e-05	-0.5333273797342027	-0.1845819358355315	-0.1281318675482697	-0.006739342504771088	0.01774398199535236	-0.2941558523428798	0.009203869000854429	0.002248415116888458	0.1887401106771435	-13.71448196518351	-38.45064259523114	-3.887819570843395	-1.092087161818535	-1.102504101341017	-624.0930490230164	69.54457226291862	0.002901801618978745	0.442912789924092	-0.5776668017484637	-0.5757895586995001	-0.2187517137760426	-0.5717572993248811	1.508819516996265	-0.9298397800819049	-0.9298397800819068	0.389975413399254	-0.01460607006559464	-0.5013631148847405	-0.3446447413717459	9.996527988125892e-08	9.108162004603237e-08	-5.634219661704864e-07	1.057882036750872e-06	8.871756940726008e-09	2.138549951502549e-07	-5.409500669910898e-07
1.53	-0.04227851300585517	0.04858706115954061	0.8440407228801835	0.6846275322659457	-0.2170546352950811	-0.1533265665969283	-0.5932802749575664	0.8380013700475722	0.8380013700475858	-0.04597097000990943	0.1745321124795769	0.2862533916680133	0.1447613372855086	0.3972631641103943	0.2204424830068122	0.436822588862122	-1.844915797387334	0.0182362354545553	-0.1814946938346094	0.8498183422897705	-1.87635991046078	-1.876359910460777	0.4526006518587609	1.398308689776932e-05	-0.5381228117103647	-0.1881090363139803	-0.1213487141850145	-0.007859488230449747	0.01754384233164145	-0.2908525271089316	0.01153837123397558	0.00117874721801665	0.1824195572791664	-14.66461246588837	-37.51039201440211	-4.098118301149444	-1.160935224645387	-1.27483509769451	-620.0062152451505	68.96725780059536	-0.02706611170413144	0.4247377348407643	-0.6303661387739717	-0.4370669912416524	-0.2399320702315974	-0.571813839182247	1.422141343493519	-0.7730394828436606	-0.7730394828441119	0.4036131641223304	0.01075238979432337	-0.4551397648526835	-0.3502491889917166	1.086700784359313e-07	7.856941704875757e-08	-7.899782518830116e-07	9.480754491310951e-07	3.742932437875898e-08	2.186326633858317e-07	-6.801367048831971e-07
1.54	-0.03830798587990391	0.05081238608728726	0.8483765209967902	0.6661593448726485	-0.2168839890656401	-0.1551701346539021	-0.5847121832399044	0.8192019428721111	0.8192019428720873	-0.04142591685881853	0.1745322783960725	0.2808504364209982	0.1428636924171453	0.3967796771883531	0.2245904293486235	0.4302472764406315	-1.848464955933456	0.01588883496860198	-0.1872220326173361	0.863667830809613	-1.883253473670164	-1.883253473670164	0.4563655519678254	1.353420498553398e-05	-0.5423785047213545	-0.1913763963088369	-0.1145655608217678	-0.008979633956119577	0.01734370266783803	-0.2875492018749918	0.01387287346710121	0.0001090793191618781	0.1760990038811816	-15.60650334777851	-36.57115348495663	-4.306062131927862	-1.233051249616368	-1.455223874606504	-615.9400122312185	68.44127904116584	-0.07215072223838474	0.4045093042734839	-0.6850225194702479	-0.2676487768219879	-0.2232351470133641	-0.5740106250279383	1.350214998572215	-0.6035599537189915	-0.6035599537189933	0.3357900462596579	-0.02023276934300874	-0.3934153218504204	-0.2926966446532781	1.128628748523492e-07	6.694018248944577e-08	-9.553550319866465e-07	8.250046961192002e-07	5.927425249249605e-08	2.202887127393453e-07	-7.696657861214555e-07
1.55	-0.03434414244688216	0.0530781428833812	0.8526439550641572	0.6476634158141099	-0.2167368162591319	-0.157071410701615	-0.5760097074727678	0.8003417386850202	0.8003417386850005	-0.03684500213458367	0.1745324678876573	0.2754076251582137	0.1409348339548997	0.395928379066568	0.2285198716203163	0.4231565597761712	-1.850455310394469	0.01354265999593033	-0.1930236206212394	0.8766808405952851	-1.88850368559088	-1.888503685590881	0.459779956442436	1.823490052780285e-05	-0.5460941291009485	-0.1943537106180292	-0.1079001058471195	-0.01022588406086368	0.01713282474885722	-0.28416970171957	0.01581932761263183	-0.0009262240469974265	0.1698597271308329	-16.53808749029232	-35.7745194910353	-4.512971635903448	-1.317986624132158	-1.477894296166369	-612.1431137124943	67.96656700824417	-0.1007109598388686	0.3810191958009632	-0.7334993744380227	-0.1248917922447095	-0.2407631620565436	-0.5816376366614676	1.254871665318103	-0.443222347258274	-0.4432223472584301	0.3385095804094589	0.009993133094878362	-0.347153626415393	-0.2941121072471404	1.118570601094741e-07	5.632828113039564e-08	-1.050242381714824e-06	6.866513177642143e-07	7.338505268910998e-08	2.18348114250482e-07	-8.019807259976735e-07
1.56	-0.03039063031560639	0.05538196560362894	0.856838001337979	0.6291555506086655	-0.2166131961002848	-0.1590303835790846	-0.5671814960684221	0.7814375382715164	0.781437538271506	-0.03223109457913768	0.1745325387150481	0.2699303541255535	0.138977429692923	0.3947134168371482	0.232203614179385	0.4155697177315752	-1.850852185315637	0.01117830543676427	-0.1987613985687395	0.8888149582510841	-1.89205271895201	-1.892052718952011	0.4629641182109553	-1.019864024998945e-05	-0.5492704586966004	-0.1970855562550176	-0.1012346508724822	-0.01147213416561661	0.01692194682994148	-0.2807902015641401	0.017765781758162	-0.001961527413171475	0.1636204503804758	-17.45772439493243	-34.97858810675969	-4.71880192526227	-1.404467521876144	-1.50831401247082	-608.3609973802198	67.53251901191716	-0.1448835437651828	0.3553693617485574	-0.784247595497416	0.05104713114727091	-0.2268710643122175	-0.5612486137472447	1.174436572597691	-0.263324241801806	-0.2633242418018041	0.289741505041327	-0.02685961660711117	-0.285556365062082	-0.2436029102124817	1.133479465065366e-07	4.613635734920815e-08	-1.173547095324396e-06	5.440491731836228e-07	9.011933632216012e-08	2.167514575224784e-07	-8.424191392763364e-07
1.57	-0.0264510780828165	0.05772134440649111	0.8609537861613882	0.6106517032298647	-0.2165131734807579	-0.1610470415962886	-0.558236512798169	0.7625063220627856	0.7625063220627986	-0.02758712386510229	0.1745325022112486	0.2644240650504787	0.1369941505909217	0.3931331733804023	0.2356254887339268	0.4075117937592074	-1.849640377104434	0.008827987535824764	-0.2045569878481807	0.9000219404589126	-1.893895285366778	-1.893895285366771	0.4657847272591898	-2.675096619180739e-06	-0.5518923147713011	-0.199522872755844	-0.09451713636955743	-0.01283879263439787	0.01671361279753169	-0.2777280897629755	0.0198984139856665	-0.003067990616821808	0.1573693944473221	-18.36428115581744	-34.15112827025687	-4.957352988966099	-1.477351653051354	-1.539403856068563	-604.9082478659006	67.11740028033691	-0.1741730744445265	0.3286221843817366	-0.8278397941842073	0.19778630449513	-0.2389181696245618	-0.5865878298092896	1.069865743920948	-0.1004613500762787	-0.1004613500751222	0.2712311615429275	0.01375346197268727	-0.2361928451596093	-0.2368746074539301	1.179597093285213e-07	3.646940554034897e-08	-1.332373513785709e-06	3.961360708210245e-07	1.101329742507555e-07	2.155847279955492e-07	-8.930118943080554e-07
1.58	-0.02252924395014693	0.06009354709131378	0.8649867367458581	0.5921682816608587	-0.2164366152435703	-0.1631212302552407	-0.5491842523660267	0.7435655324881499	0.7435655324881937	-0.02291634494922608	0.1745323799673493	0.2588944188913604	0.1349878826064247	0.3911697968110238	0.2387683905714864	0.3990028699437589	-1.846767023357703	0.006485428969302073	-0.2102675269182922	0.910270390628552	-1.893967392132021	-1.893967392132006	0.4683257585805632	-2.734666800795237e-05	-0.5539418755054213	-0.2016833327541186	-0.08779962186664569	-0.01420545110319438	0.01650527876520261	-0.2746659779618016	0.02203104621316892	-0.004174453820497024	0.1511183385141593	-19.25708745197972	-33.32339707910872	-5.195401422680955	-1.550835902968954	-1.577643127001633	-601.4566729339949	66.73214702631184	-0.2215101662915339	0.2995748183520262	-0.8744475641135484	0.3833562382530157	-0.2253191974288593	-0.5442385718813479	0.9827301649599596	0.09076768810323349	0.09076768810323273	0.2338259596690654	-0.03329863961100248	-0.1710972969460802	-0.188231609702143	1.237139862667e-07	2.768745033541478e-08	-1.496005558248066e-06	2.48188120532155e-07	1.302733668975019e-07	2.131071285751239e-07	-9.379140337935567e-07
1.59	-0.01862887840164791	0.0624957498206167	0.8689324532394347	0.5737217987500093	-0.2163833463290269	-0.1652526984590615	-0.5400345251773895	0.7246328235054659	0.7246328235055255	-0.01822204759838381	0.1745322762813417	0.2533471893249246	0.1329615434068558	0.3888423046041508	0.2416218537392582	0.3900744883639314	-1.842252070226048	0.004169776794963456	-0.2160029057532267	0.9194986477177033	-1.892269263510654	-1.892269263510628	0.4704944964571263	4.308652242387687e-06	-0.555403415824282	-0.2035393073367427	-0.08103012379487498	-0.01568513600807611	0.0162844701388432	-0.2720310157465598	0.02447408915234635	-0.005367972060551039	0.1448784886554733	-20.13599655108415	-32.4300889515168	-5.470137224069062	-1.60663585768006	-1.659043829262282	-598.4223301300926	66.36825505197511	-0.247521947265466	0.270719371449506	-0.9118832533404333	0.5271868599528617	-0.2346291285602235	-0.5845807896120716	0.8664135738687152	0.2550795088470054	0.2550795088485159	0.2022586499113701	0.02102562032180819	-0.1185245323927132	-0.1777776139295568	1.310188180768565e-07	2.010656195009305e-08	-1.666159523711838e-06	1.001928766290603e-07	1.505857838045963e-07	2.088504914420968e-07	-9.750931950377628e-07
